<svg width="86" height="91" viewBox="0 0 86 91" fill="none" xmlns="http://www.w3.org/2000/svg">
<path d="M34.1325 53.6294C38.7743 54.1188 40.8501 56.5683 41.5059 60.7504C42.7334 68.5784 44.2165 76.3663 45.6749 84.6334C34.8399 86.5392 24.478 88.3619 14.3683 90.1402C10.1553 79.8358 10.3711 69.1397 8.15698 58.4118C16.8879 56.7881 25.3089 55.2221 34.1325 53.6294Z" fill="#292684"/>
<path d="M53.2927 42.2704C49.0016 42.567 46.2689 40.7814 45.5162 37.0803C43.8364 28.8213 42.525 20.4874 40.939 11.4766C51.6262 9.59461 61.9637 7.77423 72.7725 5.87085C74.7756 16.7147 76.6814 27.032 78.6496 37.6869C69.9246 39.2729 61.8165 40.7467 53.2927 42.2704Z" fill="#6F6F73"/>
<path d="M62.5697 48.6239C68.4947 47.687 73.9993 46.8281 79.8336 45.9177C81.6918 56.0524 83.5091 65.4674 85.0132 74.9323C85.1646 75.8851 83.5727 77.9301 82.5328 78.1298C73.0973 79.9421 63.6047 81.4565 53.4916 83.1658C52.0478 74.5515 50.5171 66.1153 49.2634 57.6381C48.6566 53.5352 50.7723 51.0007 54.837 50.1595C57.2707 49.6558 59.7116 49.1867 62.5697 48.6239Z" fill="#6E9FE6"/>
<path d="M35.2132 24.4757C35.99 29.3274 36.8272 33.7337 37.419 38.1728C37.921 41.9387 36.4653 44.9576 32.5889 45.72C21.8858 47.825 11.1245 49.6349 0 51.6308C2.19547 45.4927 4.91387 41.3481 11.89 41.0748C17.4608 40.8565 22.9751 39.1971 29.1214 38.0656C27.9194 31.3028 27.2222 24.5555 25.4392 18.1085C23.4823 11.0327 25.6587 5.60227 30.7546 0C32.2807 8.31595 33.7239 16.1802 35.2132 24.4757Z" fill="#484749"/>
</svg>
